<svg id="visual" viewBox="0 0 900 600" width="900" height="600" xmlns="http://www.w3.org/2000/svg" xmlns:xlink="http://www.w3.org/1999/xlink" version="1.1"><rect x="0" y="0" width="900" height="600" fill="#0C0C0C"></rect><defs><linearGradient id="grad1_0" x1="33.3%" y1="100%" x2="100%" y2="0%"><stop offset="20%" stop-color="#0c0c0c" stop-opacity="1"></stop><stop offset="80%" stop-color="#0c0c0c" stop-opacity="1"></stop></linearGradient></defs><defs><linearGradient id="grad2_0" x1="0%" y1="100%" x2="66.7%" y2="0%"><stop offset="20%" stop-color="#0c0c0c" stop-opacity="1"></stop><stop offset="80%" stop-color="#0c0c0c" stop-opacity="1"></stop></linearGradient></defs><g transform="translate(900, 600)"><path d="M-351.5 0C-331 -12.8 -310.4 -25.7 -295.8 -35.9C-281.3 -46.1 -272.8 -53.7 -282.5 -69.6C-292.3 -85.6 -320.2 -109.8 -309.5 -117.4C-298.8 -125 -249.4 -115.9 -236.4 -124.1C-223.5 -132.2 -247 -157.6 -251 -173.3C-255 -188.9 -239.5 -195 -224.6 -198.9C-209.6 -202.9 -195.2 -204.9 -183 -206.6C-170.8 -208.3 -160.8 -209.8 -161.3 -233.7C-161.9 -257.7 -173 -304.1 -163.4 -311.3C-153.7 -318.4 -123.2 -286.2 -104.3 -274.9C-85.3 -263.5 -77.8 -273 -68.2 -276.7C-58.6 -280.4 -46.9 -278.4 -35.2 -289.9C-23.5 -301.4 -11.7 -326.5 0 -351.5L0 0Z" fill="#060606"></path></g><g transform="translate(0, 0)"><path d="M351.5 0C340.4 13.1 329.2 26.1 323.6 39.3C318 52.5 317.9 65.7 310.7 76.6C303.5 87.4 289.2 95.8 284.2 107.8C279.3 119.8 283.5 135.3 274.5 144.1C265.4 152.8 243 154.8 226.3 156.2C209.6 157.6 198.6 158.4 205.8 182.4C213.1 206.3 238.5 253.4 227.5 256.7C216.4 260.1 168.7 219.6 151.7 219.7C134.6 219.8 148.2 260.5 144.5 275.4C140.9 290.3 120.1 279.5 106 279.6C91.9 279.6 84.6 290.6 75.4 305.8C66.2 321.1 55.2 340.6 42.4 349C29.5 357.3 14.8 354.4 0 351.5L0 0Z" fill="#060606"></path></g></svg>