<svg id="visual" viewBox="0 0 900 600" width="900" height="600" xmlns="http://www.w3.org/2000/svg" xmlns:xlink="http://www.w3.org/1999/xlink" version="1.1"><rect x="0" y="0" width="900" height="600" fill="#0C0C0C"></rect><defs><linearGradient id="grad1_0" x1="33.3%" y1="0%" x2="100%" y2="100%"><stop offset="20%" stop-color="#0c0c0c" stop-opacity="1"></stop><stop offset="80%" stop-color="#0c0c0c" stop-opacity="1"></stop></linearGradient></defs><defs><linearGradient id="grad2_0" x1="0%" y1="0%" x2="66.7%" y2="100%"><stop offset="20%" stop-color="#0c0c0c" stop-opacity="1"></stop><stop offset="80%" stop-color="#0c0c0c" stop-opacity="1"></stop></linearGradient></defs><g transform="translate(900, 0)"><path d="M0 351.5C-12.8 331 -25.7 310.4 -35.9 295.8C-46.1 281.3 -53.7 272.8 -69.6 282.5C-85.6 292.3 -109.8 320.2 -117.4 309.5C-125 298.8 -115.9 249.4 -124.1 236.4C-132.2 223.5 -157.6 247 -173.3 251C-188.9 255 -195 239.5 -198.9 224.6C-202.9 209.6 -204.9 195.2 -206.6 183C-208.3 170.8 -209.8 160.8 -233.7 161.3C-257.7 161.9 -304.1 173 -311.3 163.4C-318.4 153.7 -286.2 123.2 -274.9 104.3C-263.5 85.3 -273 77.8 -276.7 68.2C-280.4 58.6 -278.4 46.9 -289.9 35.2C-301.4 23.5 -326.5 11.7 -351.5 0L0 0Z" fill="#060606"></path></g><g transform="translate(0, 600)"><path d="M0 -351.5C13.1 -340.4 26.1 -329.2 39.3 -323.6C52.5 -318 65.7 -317.9 76.6 -310.7C87.4 -303.5 95.8 -289.2 107.8 -284.2C119.8 -279.3 135.3 -283.5 144.1 -274.5C152.8 -265.4 154.8 -243 156.2 -226.3C157.6 -209.6 158.4 -198.6 182.4 -205.8C206.3 -213.1 253.4 -238.5 256.7 -227.5C260.1 -216.4 219.6 -168.7 219.7 -151.7C219.8 -134.6 260.5 -148.2 275.4 -144.5C290.3 -140.9 279.5 -120.1 279.6 -106C279.6 -91.9 290.6 -84.6 305.8 -75.4C321.1 -66.2 340.6 -55.2 349 -42.4C357.3 -29.5 354.4 -14.8 351.5 0L0 0Z" fill="#060606"></path></g></svg>